# xmcd
#
# Track frame offsets: 
#        150
#        20003
#        34500
#        47433
#        59540
#        79077
#        94398
#        105081
#        119898
#        138647
#
# Disc length: 2033 seconds
#
# Revision: 0
# Processed by: cddbd v1.5.2PL0 Copyright (c) Steve Scherf et al.
# Submitted via: ExactAudioCopy v1.3
#
DISCID=8407ef0a
DTITLE=Mike Mathis, Sr. - Old Dog. No Tricks
DYEAR=2012
DGENRE=Country
TTITLE0=The Santa Fe
TTITLE1=Austin
TTITLE2=Gypsy Blood
TTITLE3=Swamp Rabbit Stew
TTITLE4=You'll Need Someone
TTITLE5=Katy Bar The Door
TTITLE6=Billy Joe
TTITLE7=Virginia Ann
TTITLE8=Driftwood
TTITLE9=Mari In The Garden
EXTD=
EXTT0=
EXTT1=
EXTT2=
EXTT3=
EXTT4=
EXTT5=
EXTT6=
EXTT7=
EXTT8=
EXTT9=
PLAYORDER=
